<svg width="24" height="19" viewBox="0 0 24 19" fill="none" xmlns="http://www.w3.org/2000/svg">
  <path fill-rule="evenodd" clip-rule="evenodd"
    d="M21.0552 5H2.3437V8C2.3437 8.55229 2.80911 9 3.38323 9H20.0156C20.5897 9 21.0552 8.55229 21.0552 8V5ZM6.5018 3C6.5018 1.34315 7.89804 0 9.62038 0H13.7785C15.5008 0 16.8971 1.34315 16.8971 3H21.0552C22.2034 3 23.1342 3.89543 23.1342 5V15C23.1342 17.2091 21.2726 19 18.9761 19H4.42275C2.12629 19 0.264648 17.2091 0.264648 15V5C0.264648 3.89543 1.19547 3 2.3437 3H6.5018ZM8.58085 3H14.818C14.818 2.44772 14.3526 2 13.7785 2H9.62038C9.04626 2 8.58085 2.44772 8.58085 3ZM8.58085 11H3.38323C3.01873 11 2.66884 10.9398 2.3437 10.8293V15C2.3437 16.1046 3.27452 17 4.42275 17H18.9761C20.1243 17 21.0552 16.1046 21.0552 15V10.8293C20.73 10.9398 20.3801 11 20.0156 11H14.818V12.6C14.818 13.3732 14.1664 14 13.3627 14H10.0362C9.23243 14 8.58085 13.3732 8.58085 12.6V11ZM10.6599 12H12.739V11H10.6599V12Z"
    fill="#3DD598" />
</svg>