<svg width="30" height="30" viewBox="0 0 30 30" fill="none" xmlns="http://www.w3.org/2000/svg">
<rect width="30" height="30" rx="10" fill="white"/>
<path fill-rule="evenodd" clip-rule="evenodd" d="M10.6633 7.7L11.3354 5.68377C11.4715 5.27543 11.8536 5 12.2841 5H17.6841C18.1145 5 18.4966 5.27543 18.6328 5.68377L19.3048 7.7H23.984C24.5363 7.7 24.984 8.14772 24.984 8.7C24.984 9.25229 24.5363 9.7 23.984 9.7H23.127L22.3931 22.1762C22.2998 23.7619 20.9867 25 19.3983 25H10.5699C8.98145 25 7.66833 23.7619 7.57506 22.1762L6.84116 9.7H6C5.44772 9.7 5 9.25229 5 8.7C5 8.14772 5.44772 7.7 6 7.7H10.6633ZM12.7715 7.7H17.1966L16.9633 7H13.0048L12.7715 7.7ZM21.1235 9.7H8.84462L9.57161 22.0587C9.6027 22.5873 10.0404 23 10.5699 23H19.3983C19.9277 23 20.3654 22.5873 20.3965 22.0587L21.1235 9.7ZM16.686 12.2376C16.7205 11.6864 17.1952 11.2675 17.7464 11.3019C18.2977 11.3364 18.7166 11.8112 18.6821 12.3624L18.2321 19.5624C18.1977 20.1136 17.7229 20.5325 17.1717 20.4981C16.6205 20.4636 16.2016 19.9888 16.236 19.4376L16.686 12.2376ZM13.7321 19.4376C13.7666 19.9888 13.3477 20.4636 12.7964 20.4981C12.2452 20.5325 11.7705 20.1136 11.736 19.5624L11.286 12.3624C11.2516 11.8112 11.6705 11.3364 12.2217 11.3019C12.7729 11.2675 13.2477 11.6864 13.2821 12.2376L13.7321 19.4376Z" fill="#EB4C4C"/>
</svg>
