<svg width="24" height="24" viewBox="0 0 24 24" fill="none" xmlns="http://www.w3.org/2000/svg">
<path fill-rule="evenodd" clip-rule="evenodd" d="M7.85713 1.04761H17.1428C19.2468 1.04761 20.9524 2.75319 20.9524 4.85713V20.2119C20.9524 21.2639 20.0996 22.1167 19.0476 22.1167C18.615 22.1167 18.1954 21.9694 17.8576 21.6992L12.5 17.4125L7.14236 21.6992C6.32095 22.3564 5.12229 22.2233 4.46508 21.4019C4.19484 21.0641 4.04761 20.6445 4.04761 20.2119V4.85713C4.04761 2.75319 5.75319 1.04761 7.85713 1.04761ZM7.85713 2.95237C6.80516 2.95237 5.95237 3.80516 5.95237 4.85713V20.2119L11.31 15.9252C12.0057 15.3686 12.9943 15.3686 13.69 15.9252L19.0476 20.2119V4.85713C19.0476 3.80516 18.1948 2.95237 17.1428 2.95237H7.85713Z" fill="#403ECC"/>
</svg>
