<svg width="58" height="58" viewBox="0 0 58 58" fill="none" xmlns="http://www.w3.org/2000/svg">
<path d="M29 55.5C43.6355 55.5 55.5 43.6355 55.5 29C55.5 14.3645 43.6355 2.5 29 2.5C14.3645 2.5 2.5 14.3645 2.5 29C2.5 43.6355 14.3645 55.5 29 55.5Z" fill="#44444F" stroke="white" stroke-width="5"/>
<path fill-rule="evenodd" clip-rule="evenodd" d="M30.4115 29.0003L35.6886 34.2822C36.079 34.6729 36.0787 35.306 35.688 35.6964C35.2973 36.0867 34.6641 36.0864 34.2738 35.6957L28.9963 30.4135L23.7066 35.6953C23.3158 36.0856 22.6826 36.0851 22.2924 35.6943C21.9021 35.3035 21.9026 34.6703 22.2934 34.2801L27.5827 28.9986L22.2956 23.7068C21.9053 23.3161 21.9056 22.6829 22.2963 22.2926C22.687 21.9022 23.3202 21.9025 23.7105 22.2932L28.998 27.5855L34.2739 22.3173C34.6648 21.9271 35.2979 21.9276 35.6881 22.3184C36.0784 22.7092 36.0779 23.3424 35.6871 23.7326L30.4115 29.0003Z" fill="white"/>
</svg>
