<svg width="24" height="24" viewBox="0 0 24 24" fill="none" xmlns="http://www.w3.org/2000/svg">
<path fill-rule="evenodd" clip-rule="evenodd" d="M21 18V15C21 14.4477 20.5523 14 20 14C19.4477 14 19 14.4477 19 15V18C19 18.5523 19.4477 19 20 19C20.5523 19 21 18.5523 21 18ZM20 12C18.3431 12 17 13.3431 17 15V18C17 19.6569 18.3431 21 20 21C21.6569 21 23 19.6569 23 18V15C23 13.3431 21.6569 12 20 12Z" fill="#696974"/>
<path fill-rule="evenodd" clip-rule="evenodd" d="M13 18V11C13 10.4477 12.5523 10 12 10C11.4477 10 11 10.4477 11 11V18C11 18.5523 11.4477 19 12 19C12.5523 19 13 18.5523 13 18ZM12 8C10.3431 8 9 9.34315 9 11V18C9 19.6569 10.3431 21 12 21C13.6569 21 15 19.6569 15 18V11C15 9.34315 13.6569 8 12 8Z" fill="#696974"/>
<path fill-rule="evenodd" clip-rule="evenodd" d="M5 18V6C5 5.44772 4.55228 5 4 5C3.44772 5 3 5.44772 3 6V18C3 18.5523 3.44772 19 4 19C4.55228 19 5 18.5523 5 18ZM4 3C2.34315 3 1 4.34315 1 6V18C1 19.6569 2.34315 21 4 21C5.65685 21 7 19.6569 7 18V6C7 4.34315 5.65685 3 4 3Z" fill="#696974"/>
</svg>
