<svg width="24" height="24" viewBox="0 0 24 24" fill="none" xmlns="http://www.w3.org/2000/svg">
<path fill-rule="evenodd" clip-rule="evenodd" d="M18.3062 3.00009C18.8535 3.00009 19.2972 3.43893 19.2972 3.98026V5.67451C20.798 5.72151 22 6.93961 22 8.43539V20.0192C22 20.665 21.3795 21.1344 20.7493 20.9651C20.3273 20.8518 19.697 20.6679 18.8254 20.4064L18.7333 20.3788C18.378 20.272 17.1934 19.9138 17.2933 19.944C16.8198 19.8011 16.5648 19.7256 16.4651 19.6993C15.1494 19.3518 13.9449 19.2181 12.0187 19.2172C12.0062 19.2175 11.9937 19.2175 11.9812 19.2172C10.0551 19.2181 8.8506 19.3518 7.53489 19.6993C7.43523 19.7256 7.18019 19.8011 6.70673 19.944C6.80659 19.9138 5.62204 20.272 5.26673 20.3788L5.17463 20.4064C4.30305 20.6679 3.67267 20.8518 3.25069 20.9651C2.62053 21.1344 2 20.665 2 20.0192V8.43539C2 6.93965 3.20195 5.72158 4.70264 5.67451V3.98026C4.70264 3.43893 5.14632 3.00009 5.69363 3.00009C8.0627 3.00009 10.1718 3.53521 12.0031 4.60587C13.8524 3.53552 15.9593 3.00009 18.3062 3.00009ZM6.68462 6.68487C6.68496 6.67438 6.68512 6.66384 6.68512 6.65327C6.68512 6.64269 6.68496 6.63215 6.68462 6.62166V4.99767C8.30144 5.12186 9.73932 5.5566 11.0089 6.3019V16.5684C9.68798 15.9652 8.24463 15.6115 6.68462 15.5075V6.68487ZM4.70264 7.63834C4.29727 7.68269 3.98198 8.02262 3.98198 8.43539V18.7145C4.18342 18.6548 4.40295 18.5893 4.64296 18.5172L4.72789 18.4917C4.98675 18.4139 5.67997 18.2045 5.99579 18.109L6.1542 18.0612C6.63871 17.9151 6.89982 17.838 7.02365 17.8053C7.28974 17.735 7.55203 17.6724 7.8153 17.6169C7.14101 17.4958 6.43408 17.4353 5.69363 17.4353C5.14632 17.4353 4.70264 16.9965 4.70264 16.4551V7.63834ZM16.1902 17.6181C16.4516 17.6733 16.7121 17.7355 16.9764 17.8053C17.1002 17.838 17.3613 17.9151 17.8458 18.0612L18.0043 18.109C18.3201 18.2045 19.0133 18.4139 19.2721 18.4917L19.357 18.5172C19.597 18.5893 19.8166 18.6548 20.018 18.7145V8.43539C20.018 8.02258 19.7027 7.68262 19.2972 7.63832V16.4551C19.2972 16.9965 18.8535 17.4353 18.3062 17.4353C17.5696 17.4353 16.8645 17.4962 16.1902 17.6181ZM17.3152 15.5079C15.7617 15.6128 14.3184 15.9679 12.9909 16.573V6.30545C14.2756 5.55925 15.7135 5.12377 17.3152 4.99842V15.5079ZM20.9189 20.0192C20.9189 19.9605 20.9753 19.9178 21.0326 19.9332C20.9964 19.9235 20.9585 19.9132 20.9189 19.9023V20.0192ZM3.08108 20.0192C3.08108 19.9651 3.03315 19.9246 2.98078 19.9306L2.97187 19.932L3.08108 19.9023V20.0192Z" fill="#696974"/>
</svg>
