<svg width="36" height="36" viewBox="0 0 36 36" fill="none" xmlns="http://www.w3.org/2000/svg">
<rect width="36" height="36" rx="6.31579" fill="#403ECC"/>
<path fill-rule="evenodd" clip-rule="evenodd" d="M23.861 13.5961L24.9757 12.4813L22.5187 10.0243L21.4039 11.139L23.861 13.5961ZM22.4542 15.0029L19.9971 12.5458L10.8057 21.7373L10.2401 24.7599L13.2627 24.1943L22.4542 15.0029ZM26.4419 11.134C27.186 11.8781 27.186 13.0846 26.4419 13.8287L14.4517 25.8189C14.3099 25.9607 14.1285 26.0564 13.9313 26.0933L9.17816 26.9826C8.49083 27.1112 7.88885 26.5092 8.01744 25.8218L8.90674 21.0687C8.94363 20.8715 9.03928 20.6901 9.18113 20.5483L21.1713 8.55809C21.9154 7.81397 23.1219 7.81397 23.866 8.55809L26.4419 11.134ZM26.0099 27H17.9901C16.67 27 16.67 25 17.9901 25H26.0099C27.33 25 27.33 27 26.0099 27Z" fill="white"/>
</svg>
