<svg width="13" height="13" viewBox="0 0 13 13" fill="none" xmlns="http://www.w3.org/2000/svg">
<path fill-rule="evenodd" clip-rule="evenodd" d="M10.9073 4.06411L11.6505 3.32094L10.0124 1.6829L9.26924 2.42607L10.9073 4.06411ZM9.96944 5.00196L8.3314 3.36392L2.20375 9.49156L1.82674 11.5066L3.84179 11.1296L9.96944 5.00196ZM12.6279 2.4227C13.124 2.91878 13.124 3.72309 12.6279 4.21918L4.63447 12.2126C4.53991 12.3072 4.41896 12.371 4.28751 12.3955L1.11875 12.9884C0.660535 13.0741 0.259212 12.6728 0.344942 12.2146L0.937807 9.04585C0.962401 8.91439 1.02617 8.79345 1.12073 8.69888L9.11417 0.705437C9.61026 0.209353 10.4146 0.209353 10.9107 0.705437L12.6279 2.4227ZM12.3399 13H6.99338C6.11329 13 6.11329 11.6667 6.99338 11.6667H12.3399C13.22 11.6667 13.22 13 12.3399 13Z" fill="#D5D5DC"/>
</svg>
