<svg width="23" height="19" viewBox="0 0 23 19" fill="none" xmlns="http://www.w3.org/2000/svg">
<path fill-rule="evenodd" clip-rule="evenodd" d="M16.5 3H19.5C21.1569 3 22.5 4.34315 22.5 6V16C22.5 17.6569 21.1569 19 19.5 19H3.5C1.84315 19 0.5 17.6569 0.5 16V6C0.5 4.34315 1.84315 3 3.5 3H6.5C6.5 1.34315 7.84315 0 9.5 0H13.5C15.1569 0 16.5 1.34315 16.5 3ZM6 5V17H17V5H6ZM19 5V17H19.5C20.0523 17 20.5 16.5523 20.5 16V6C20.5 5.44772 20.0523 5 19.5 5H19ZM3.5 5H4V17H3.5C2.94772 17 2.5 16.5523 2.5 16V6C2.5 5.44772 2.94772 5 3.5 5ZM14.5 3C14.5 2.44772 14.0523 2 13.5 2H9.5C8.94772 2 8.5 2.44772 8.5 3H14.5Z" fill="#92929D"/>
</svg>
