<svg width="21" height="21" viewBox="0 0 21 21" fill="none" xmlns="http://www.w3.org/2000/svg">
<path fill-rule="evenodd" clip-rule="evenodd" d="M3.1829 2.6829C-0.394301 6.2601 -0.394301 12.0599 3.1829 15.6371C6.7601 19.2143 12.5599 19.2143 16.1371 15.6371C19.7143 12.0599 19.7143 6.2601 16.1371 2.6829C12.5599 -0.894301 6.7601 -0.894301 3.1829 2.6829ZM4.59712 4.09712C7.39327 1.30096 11.9267 1.30096 14.7229 4.09712C17.519 6.89327 17.519 11.4267 14.7229 14.2229C11.9267 17.019 7.39327 17.019 4.59712 14.2229C1.80096 11.4267 1.80096 6.89327 4.59712 4.09712Z" fill="#92929D"/>
<path d="M20.5943 18.2825L16.4649 14.153C15.5221 13.2102 14.1078 14.6244 15.0506 15.5672L19.1801 19.6967C20.1229 20.6395 21.5371 19.2253 20.5943 18.2825Z" fill="#92929D"/>
</svg>
