<svg width="30" height="30" viewBox="0 0 30 30" fill="none" xmlns="http://www.w3.org/2000/svg">
<rect width="30" height="30" rx="6.31579" fill="#403ECC"/>
<path fill-rule="evenodd" clip-rule="evenodd" d="M6.75828 14.5312C8.29516 10.7568 11.466 8.33331 15 8.33331C18.5339 8.33331 21.7048 10.7568 23.2416 14.5312C23.3638 14.8314 23.3638 15.1686 23.2416 15.4687C21.7048 19.2432 18.5339 21.6666 15 21.6666C11.466 21.6666 8.29516 19.2432 6.75828 15.4687C6.63607 15.1686 6.63607 14.8314 6.75828 14.5312ZM15 20.1247C17.8492 20.1247 20.4614 18.1556 21.7916 15C20.4614 11.8444 17.8492 9.87526 15 9.87526C12.1508 9.87526 9.5385 11.8444 8.20837 15C9.5385 18.1556 12.1508 20.1247 15 20.1247ZM15 18.0385C13.351 18.0385 12.0142 16.6781 12.0142 15C12.0142 13.3218 13.351 11.9614 15 11.9614C16.6489 11.9614 17.9857 13.3218 17.9857 15C17.9857 16.6781 16.6489 18.0385 15 18.0385ZM15 16.4966C15.8121 16.4966 16.4705 15.8265 16.4705 15C16.4705 14.1734 15.8121 13.5034 15 13.5034C14.1878 13.5034 13.5294 14.1734 13.5294 15C13.5294 15.8265 14.1878 16.4966 15 16.4966Z" fill="white"/>
</svg>
