<svg width="21" height="21" viewBox="0 0 21 21" fill="none" xmlns="http://www.w3.org/2000/svg">
  <path fill-rule="evenodd" clip-rule="evenodd"
    d="M17.7273 4.65208C19.1474 6.37875 20 8.58974 20 10.9999C20 16.5227 15.5228 20.9999 10 20.9999C4.47715 20.9999 0 16.5227 0 10.9999C0 5.47702 4.47715 0.999869 10 0.999869C12.3924 0.999869 14.5886 1.84 16.3096 3.24133L16.8604 2.69051L17.1222 1.29613C17.2241 0.753333 17.7468 0.395914 18.2896 0.497819C18.8324 0.599723 19.1898 1.12236 19.0879 1.66516L19.0308 1.96909L19.3348 1.91203C19.8776 1.81013 20.4002 2.16755 20.5021 2.71035C20.604 3.25315 20.2466 3.77579 19.7038 3.87769L18.2239 4.15553L17.7273 4.65208ZM14.8861 4.66486C13.5346 3.62094 11.8398 2.99987 10 2.99987C5.58172 2.99987 2 6.58159 2 10.9999C2 15.4181 5.58172 18.9999 10 18.9999C14.4183 18.9999 18 15.4181 18 10.9999C18 9.14228 17.3669 7.43256 16.3047 6.07473L14.8763 7.5031C15.5835 8.48763 16 9.69512 16 10.9999C16 14.3136 13.3137 16.9999 10 16.9999C6.68629 16.9999 4 14.3136 4 10.9999C4 7.68616 6.68629 4.99987 10 4.99987C11.2869 4.99987 12.4792 5.40502 13.4562 6.09473L14.8861 4.66486ZM12.0101 7.54086C11.4195 7.19689 10.7327 6.99987 10 6.99987C7.79086 6.99987 6 8.79073 6 10.9999C6 13.209 7.79086 14.9999 10 14.9999C12.2091 14.9999 14 13.209 14 10.9999C14 10.249 13.7931 9.54647 13.4332 8.94615L11.9248 10.4546C11.9738 10.6279 12 10.8108 12 10.9999C12 12.1044 11.1046 12.9999 10 12.9999C8.89543 12.9999 8 12.1044 8 10.9999C8 9.8953 8.89543 8.99987 10 8.99987C10.1692 8.99987 10.3336 9.02089 10.4905 9.06046L12.0101 7.54086Z"
    fill="#3BB1CF" />
</svg>