<svg width="40" height="40" viewBox="0 0 40 40" fill="none" xmlns="http://www.w3.org/2000/svg">
<path d="M39.8881 22.1033C39.5693 25.1626 38.5463 28.1065 36.8992 30.7043V30.7055C34.5405 34.4162 31.0293 37.2504 26.9045 38.7732C24.3955 38.4958 21.974 37.689 19.8 36.4063C19.3004 36.1119 18.8183 35.7951 18.3538 35.4558C15.7772 33.5768 13.7451 31.0481 12.4646 28.1276C16.5739 30.069 21.2198 30.5603 25.6443 29.5214C26.2071 29.3879 26.7627 29.2306 27.3073 29.0502C30.6922 27.9288 33.7171 25.9258 36.0709 23.2473C36.4739 22.7898 36.8551 22.3142 37.2147 21.8205C38.2857 20.3517 39.1502 18.7429 39.784 17.0391C40.0327 18.7159 40.0677 20.4176 39.8881 22.1033Z" fill="#F6AF41"/>
<path d="M27.509 11.8691C23.4006 9.92786 18.7554 9.43665 14.3317 10.4757C13.7679 10.6078 13.2132 10.7644 12.6676 10.9454H12.6664C9.28165 12.0677 6.25677 14.0711 3.90272 16.7496C3.49976 17.2071 3.11839 17.6831 2.75861 18.1775C1.69814 19.6318 0.840153 21.2235 0.208184 22.9088C-0.274438 19.5756 0.0852159 16.1745 1.25434 13.0159C1.7312 11.7335 2.33963 10.5039 3.0699 9.34689C5.4268 5.61146 8.94986 2.75762 13.0932 1.22754C15.5936 1.50779 18.0066 2.31355 20.1737 3.59194C20.6731 3.88513 21.1559 4.20202 21.622 4.54263C24.1979 6.42107 26.2293 8.94921 27.509 11.8691Z" fill="#27A3C4"/>
<path d="M38.7637 13.0675C38.486 15.5809 37.6784 18.0069 36.3941 20.1851C36.1009 20.6846 35.784 21.1674 35.4434 21.6335C33.5649 24.2094 31.0367 26.2408 28.1167 27.5204C30.058 23.412 30.5492 18.7668 29.5101 14.3431C29.3768 13.7791 29.2184 13.2222 29.0382 12.6764H29.037C27.9163 9.29212 25.9135 6.2679 23.235 3.91535C22.7775 3.51239 22.3019 3.13112 21.8082 2.77152C20.3486 1.70682 18.7505 0.846413 17.0581 0.214125C20.4085 -0.278431 23.8289 0.0820152 27.003 1.26211C28.2885 1.74137 29.5207 2.35288 30.6798 3.08679C34.3943 5.43919 37.2341 8.94546 38.7637 13.0675Z" fill="#359C6A"/>
<path d="M22.9287 39.7882C19.578 40.2784 16.1578 39.9154 12.9846 38.7331C11.704 38.2553 10.4764 37.6458 9.32167 36.9144C5.58859 34.5517 2.73936 31.0234 1.21582 26.8765V26.8753C1.49789 24.3808 2.30296 21.9738 3.57844 19.8115C3.87163 19.3121 4.18849 18.8297 4.52902 18.3644C6.40808 15.7879 8.93687 13.7559 11.8575 12.4756C9.91606 16.5848 9.42467 21.2308 10.4635 25.6553C10.5969 26.2193 10.7539 26.774 10.9345 27.3195C12.0564 30.7045 14.0598 33.7295 16.7387 36.0832C17.1952 36.4859 17.6705 36.8667 18.1646 37.2257C19.6281 38.2936 21.231 39.1558 22.9287 39.7882Z" fill="#DB2236"/>
<path d="M22.0132 17.9385C22.0156 19.5606 21.685 21.166 21.0419 22.6552C20.3987 24.1445 19.4568 25.4859 18.2744 26.5964C18.8459 25.9329 19.2534 25.1442 19.464 24.2942C19.6746 23.4442 19.6824 22.5566 19.4868 21.703C19.2912 20.8494 18.8977 20.0537 18.338 19.3802C17.7783 18.7067 17.068 18.1742 16.2646 17.8257C16.4017 17.8154 16.541 17.81 16.6813 17.81C18.0709 17.8082 19.4093 18.3349 20.425 19.2833C21.221 16.3254 20.8496 13.1747 19.3877 10.4829C21.0906 12.5942 22.0174 15.226 22.0132 17.9385Z" fill="#151F59"/>
<path d="M26.8178 19.8796C26.8186 21.0698 26.5269 22.2419 25.9681 23.2928C25.4094 24.3437 24.6009 25.2411 23.6138 25.9061C23.6128 25.907 23.6117 25.9077 23.6105 25.9082C22.7575 26.4824 21.7924 26.8691 20.7789 27.0428C19.7654 27.2165 18.7266 27.1733 17.7311 26.916C16.7355 26.6587 15.8059 26.1931 15.0035 25.5501C14.2011 24.9071 13.5442 24.1012 13.0762 23.1856C13.6959 24.0886 14.5312 24.8228 15.5064 25.3215C16.4815 25.8202 17.5657 26.0677 18.6606 26.0415C19.7556 26.0154 20.8267 25.7164 21.7769 25.1718C22.7272 24.6271 23.5265 23.8539 24.1024 22.9223C24.6784 21.9907 25.0128 20.9301 25.0753 19.8367C25.1378 18.7432 24.9265 17.6514 24.4605 16.6602C23.9945 15.669 23.2886 14.8098 22.4066 14.1603C21.5246 13.5109 20.4946 13.0918 19.4097 12.941C19.1095 12.8991 18.8068 12.8782 18.5036 12.8784C18.047 12.8782 17.5916 12.9254 17.1447 13.0193C18.213 12.6461 19.3536 12.527 20.4759 12.6713C21.5982 12.8157 22.6715 13.2195 23.6105 13.8509C23.6117 13.8514 23.6128 13.8522 23.6138 13.8531C24.6009 14.518 25.4093 15.4155 25.9681 16.4664C26.5268 17.5173 26.8186 18.6894 26.8178 19.8796Z" fill="#004691"/>
<path d="M13.1318 19.8789C13.1297 21.1408 13.4719 22.3794 14.1216 23.4612C13.4463 22.6908 12.9769 21.762 12.7572 20.7613C12.5375 19.7606 12.5746 18.7206 12.8651 17.7381C13.1555 16.7556 13.6899 15.8626 14.4184 15.1422C15.1469 14.4219 16.0458 13.8976 17.0315 13.6182C15.8612 14.1928 14.8755 15.0841 14.1861 16.1907C13.4968 17.2974 13.1316 18.5751 13.1318 19.8789Z" fill="#004691"/>
<path d="M19.6512 17.8121C20.0473 17.6213 20.1416 16.9959 19.8619 16.4152C19.5822 15.8345 19.0344 15.5185 18.6383 15.7092C18.2422 15.9 18.1479 16.5254 18.4276 17.1061C18.7073 17.6868 19.2551 18.0029 19.6512 17.8121Z" fill="#151F59"/>
</svg>
